<?xml version="1.0" encoding="utf-8"?>
<!-- Generator: Adobe Illustrator 21.0.2, SVG Export Plug-In . SVG Version: 6.00 Build 0)  -->
<svg version="1.1" id="Layer_1" xmlns="http://www.w3.org/2000/svg" xmlns:xlink="http://www.w3.org/1999/xlink" x="0px" y="0px"
	 viewBox="0 0 111.8 111.8" style="enable-background:new 0 0 111.8 111.8;" xml:space="preserve">
<style type="text/css">
	.st0{fill:#FFFFFF;}
	.st1{fill:none;stroke:#606060;stroke-miterlimit:10;}
	.st2{fill:none;stroke:#FFFFFF;stroke-width:0.5;stroke-miterlimit:10;}
	.st3{fill:#FFFFFF;stroke:#FFFFFF;stroke-width:0.5;stroke-miterlimit:10;}
	.st4{fill:none;stroke:#FFFFFF;stroke-width:0.25;stroke-miterlimit:10;}
</style>
<g>
	<g id="Layer_1_1_">
		<g id="circle-background">
			<circle class="st0" cx="55.9" cy="55.9" r="55.9"/>
			<circle class="st1" cx="55.9" cy="55.9" r="55.9"/>
		</g>
		<g id="phone">
			<path id="phone-outline" d="M31.4,78.9l4.9-12.1l7-13.4l9.3-12l8.2-8.9l8.3-7l6.3-3l2.8-0.5h3.7l3.1,0.9l2.4,1.9l1.5,1.9l0.5,1.6
				v2.9L89,34.4l-1.1,2.8L85.7,41l-2.3,2.6l-2.7,2.1l-2.2,1h-3.9l-4.3-2.3l-4.2-3.9l-4,8.4L58,55.5l-4.6,6.6l-3.7,5l-2,2.6l1.9,0.5
				l1.7,1.4l1.3,2.3l1.5,2.7l1.1,3.6l0.4,2.8l0.3,3.6v3.3L55,93.3l-2.3,3l-1.9,0.9h-3.1l-5.3-0.4l-5.3-2.6l-3.5-3.5l-2.1-5.3v-3.5
				l-3.3,1.4l1.3,1.3l0.3,1.7L29,87.4l-2,0.2l-1.9-0.4l-0.7-1.5l-1,0.7l-0.9-2.1l3-1.9l3.7-1.7l2-0.9L31.4,78.9z"/>
			<g id="bottom-_phone_outline">
				<polyline id="bottom-outline1" class="st2" points="47.2,72.9 46,73.9 44.9,76.3 44.4,78 44.4,82.2 45.3,86.4 47.2,89.9 
					49,91.8 50.7,92.3 52.6,91.5 53.8,89.8 				"/>
				<polyline id="bottom-outline2" class="st2" points="43.3,72.2 42.1,75.7 42.1,79 42.1,83.9 43.3,88.6 45,92.8 47.3,95 48.7,96 
					50.6,96 51.8,95.4 53.4,93.6 55,91 				"/>
				<polyline id="bottom-outline3" class="st2" points="39.4,74.4 38,79.1 38,84.1 38.7,88.2 40.3,91.8 42.1,94.1 44.4,96 				"/>
				<polygon id="bottom-outline4" class="st0" points="38,82.6 42.1,80.1 42.1,75.7 42.4,74.9 39.1,75.3 38,79.1 				"/>
				<polygon id="bottom-outline5" class="st0" points="32,79.7 34.3,75.6 36.3,73.6 40.6,71.6 38.7,74 38,75.6 35.4,77.3 32.2,81.3 
									"/>
				<polygon id="bottom-outline6" class="st0" points="32.4,82.2 35.3,79 37.5,77.7 37.7,76.4 36.1,77.3 32.8,81 				"/>
			</g>
			<g id="middle-_phone_outlines">
				<polyline id="middle-outline1" class="st2" points="38.6,71.3 41.9,62.9 45.3,56.2 48.1,51.7 53,45.2 56.7,40.6 61.4,36 				"/>
				<path id="middle-outline2" class="st2" d="M62.9,33.1l-6.7,6.2l-4.5,5.1l-2.9,3.8c0,0-3.7,5.3-3.7,5.4S42,58.9,42,58.9l-4.5,9.9
					"/>
			</g>
			<g id="top-_phone_outlines">
				<path id="top-outline1" class="st3" d="M85.7,25.2L83,24.9l-2.9,1l-4.3,3.5L73,33.7c0,0-1.1,3.9-1.1,4.1v3.5l1.2,2.4l1.5,1.3
					l1.3,0.4h2.7l2.7-1.4l3-2.8L80.5,44l-2.4,0.3l-2.8-0.6l-1.6-1.9L73.3,37l1.5-4.2l2.3-3.3l3.3-2.8l2.6-1.2L85.7,25.2z"/>
				<polyline id="top-outline2" class="st2" points="81.9,24.1 77.6,26.1 73.8,30 71.6,34.5 70.8,37.1 70.3,39.9 71,42.8 72.2,44.4 
									"/>
				<path id="top-outline3" class="st2" d="M76.5,23.2l-3.2,2.1l-2.4,2.8c0,0-2.3,3.5-2.3,3.7s-0.5,2.5-0.5,2.5v3l0.2,2l1.6,3.6"/>
				<polyline id="top-outline4" class="st2" points="66.9,29.7 65.7,31.5 65.5,33.4 65.5,36 66.4,38.2 68.6,41.7 				"/>
				<polygon id="top-outline5" class="st3" points="73.9,25.6 75.8,26.1 71.7,31.6 70.5,31 70.9,29.7 				"/>
				<polyline id="top-outline6" class="st4" points="77.7,35.7 77.7,37.6 78.2,38.5 78.8,39 79.7,39 80.8,38.6 82.7,37.1 				"/>
			</g>
			<g id="phone_circles">
				<circle id="top-phone_circle1" class="st0" cx="79.9" cy="34.9" r="0.3"/>
				
					<ellipse id="top-phone_circle2" transform="matrix(0.1073 -0.9942 0.9942 0.1073 35.9053 112.1528)" class="st0" cx="80.4" cy="36.1" rx="0.3" ry="0.3"/>
				<circle id="top-phone_circle3" class="st0" cx="81.8" cy="35.7" r="0.3"/>
				<circle id="top-phone_circle4" class="st0" cx="81.1" cy="34.9" r="0.3"/>
				<circle id="top-phone_circle5" class="st0" cx="79.4" cy="36.3" r="0.3"/>
				<circle id="top-phone_circle6" class="st0" cx="79.8" cy="37.3" r="0.3"/>
				<circle id="top-phone_circle7" class="st0" cx="81.1" cy="37" r="0.3"/>
			</g>
			<g id="bottom-phone_circles">
				<g id="bottom-circles-group1">
					<circle id="bottom-circle1" class="st0" cx="48" cy="79.6" r="0.4"/>
					<circle id="bottom-circle2" class="st0" cx="49" cy="79.4" r="0.4"/>
					<circle id="bottom-circle3" class="st0" cx="47.6" cy="80.8" r="0.4"/>
					<circle id="bottom-circle4" class="st0" cx="48.7" cy="80.8" r="0.4"/>
					<circle id="bottom-circle5" class="st0" cx="49.8" cy="81.1" r="0.4"/>
					<circle id="bottom-circle6" class="st0" cx="50.5" cy="79.6" r="0.4"/>
					<circle id="bottom-circle7" class="st0" cx="51.5" cy="79.8" r="0.4"/>
					<circle id="bottom-circle8" class="st0" cx="50.9" cy="81.3" r="0.4"/>
					<circle id="bottom-circle9" class="st0" cx="51.9" cy="81.3" r="0.4"/>
					<circle id="bottom-circle10" class="st0" cx="48.7" cy="78.1" r="0.4"/>
					<circle id="bottom-circle11" class="st0" cx="50.8" cy="78.1" r="0.4"/>
					<circle id="bottom-circle12" class="st0" cx="49.8" cy="78.1" r="0.4"/>
				</g>
				<g id="bottom-circles-group2">
					
						<ellipse id="bottom-circle13" transform="matrix(1.780210e-02 -0.9998 0.9998 1.780210e-02 -33.1506 133.9994)" class="st0" cx="51.6" cy="83.9" rx="0.4" ry="0.4"/>
					
						<ellipse id="bottom-circle14" transform="matrix(1.780210e-02 -0.9998 0.9998 1.780210e-02 -34.3222 133.0732)" class="st0" cx="50.6" cy="84" rx="0.4" ry="0.4"/>
					
						<ellipse id="bottom-circle15" transform="matrix(1.780210e-02 -0.9998 0.9998 1.780210e-02 -31.557 133.2784)" class="st0" cx="52.1" cy="82.7" rx="0.4" ry="0.4"/>
					
						<ellipse id="bottom-circle16" transform="matrix(1.780210e-02 -0.9998 0.9998 1.780210e-02 -32.5594 132.0571)" class="st0" cx="50.9" cy="82.6" rx="0.4" ry="0.4"/>
					
						<ellipse id="bottom-circle17" transform="matrix(1.780210e-02 -0.9998 0.9998 1.780210e-02 -33.4692 130.6099)" class="st0" cx="49.7" cy="82.3" rx="0.4" ry="0.4"/>
					
						<ellipse id="bottom-circle18" transform="matrix(1.780210e-02 -0.9998 0.9998 1.780210e-02 -35.6322 131.5909)" class="st0" cx="49.2" cy="83.9" rx="0.4" ry="0.4"/>
					
						<ellipse id="bottom-circle19" transform="matrix(1.780210e-02 -0.9998 0.9998 1.780210e-02 -36.4171 130.1736)" class="st0" cx="48" cy="83.6" rx="0.4" ry="0.4"/>
					
						<ellipse id="bottom-circle20" transform="matrix(1.780210e-02 -0.9998 0.9998 1.780210e-02 -34.2733 129.4526)" class="st0" cx="48.8" cy="82.2" rx="0.4" ry="0.4"/>
					
						<ellipse id="bottom-circle21" transform="matrix(1.780210e-02 -0.9998 0.9998 1.780210e-02 -35.2144 128.3565)" class="st0" cx="47.7" cy="82.1" rx="0.4" ry="0.4"/>
					
						<ellipse id="bottom-circle22" transform="matrix(1.780210e-02 -0.9998 0.9998 1.780210e-02 -35.3222 134.7935)" class="st0" cx="50.9" cy="85.4" rx="0.4" ry="0.4"/>
					
						<ellipse id="bottom-circle23" transform="matrix(1.780210e-02 -0.9998 0.9998 1.780210e-02 -37.5055 132.5685)" class="st0" cx="48.7" cy="85.4" rx="0.4" ry="0.4"/>
					
						<ellipse id="bottom-circle24" transform="matrix(1.780210e-02 -0.9998 0.9998 1.780210e-02 -36.4621 133.6301)" class="st0" cx="49.8" cy="85.4" rx="0.4" ry="0.4"/>
				</g>
			</g>
			<polygon id="cord-circle" class="st0" points="26.8,84.4 26,85.4 26,85.9 26.8,85.9 28,85.9 28,85 			"/>
		</g>
	</g>
</g>
</svg>
