<svg id="Layer_1" data-name="Layer 1" xmlns="http://www.w3.org/2000/svg" viewBox="0 0 200 110.17"><defs><style>.cls-1,.cls-2{isolation:isolate;}.cls-1{font-size:66.44px;font-family:Menlo-Regular, Menlo;}.cls-2{font-size:33.33px;font-family:ArialMT, Arial;letter-spacing:0.08em;}.cls-3{fill:#123a9e;}.cls-4{fill:#179623;}</style></defs><title>logo</title><text class="cls-1" transform="translate(0 57.44)">C{}DE</text><text class="cls-2" transform="translate(36.78 99.34)"><tspan xml:space="preserve">W  RLD</tspan></text><g id="globe"><circle id="globe-2" class="cls-3" cx="80.99" cy="85.42" r="11.64"/><polygon id="path1" class="cls-4" points="87.73 75.94 87.73 78.42 88.42 78.91 88.42 80.24 89.68 81.92 90.45 83.61 90.45 84.94 89.89 88.65 89.54 89.98 89.09 90.76 89.09 92.3 89.95 92.84 91.32 90.78 92.35 87.97 92.63 85.42 92.63 83.53 91.91 81.39 90.92 79.36 89.61 77.58 87.73 75.94"/><polygon id="path2" class="cls-4" points="71.19 79.15 73.4 82 75.19 83.11 75.03 85.42 74.61 87.69 75.56 88.64 77.03 90.63 78.13 91.42 79.19 92.37 79.97 91.63 79.97 89.74 79.97 87.48 79.23 85.76 79.55 84.95 80.39 83 80.71 81.53 81.34 80.06 82.13 78.54 82.13 77.38 81.81 76.22 82.13 75.75 82.83 73.93 80.99 73.79 78.77 74 76.45 74.71 75 75.45 73.43 76.58 71.99 78.05 71.19 79.15"/></g></svg>