<?xml version="1.0" encoding="utf-8"?>
<!-- Generator: Adobe Illustrator 21.0.2, SVG Export Plug-In . SVG Version: 6.00 Build 0)  -->
<svg version="1.1" id="Layer_1" xmlns="http://www.w3.org/2000/svg" xmlns:xlink="http://www.w3.org/1999/xlink" x="0px" y="0px"
	 viewBox="0 0 170.8 169.9" style="enable-background:new 0 0 170.8 169.9;" xml:space="preserve">
<style type="text/css">
	.st0{fill:#FFFFFF;}
	.st1{fill:none;stroke:#606060;stroke-miterlimit:10;}
	.st2{stroke:#000000;stroke-miterlimit:10;}
	.st3{fill:#FFFFFF;stroke:#000000;stroke-width:0.75;stroke-miterlimit:10;}
	.st4{fill:#FFFFFF;stroke:#000000;stroke-width:0.5;stroke-miterlimit:10;}
</style>
<title>team icon</title>
<g>
	<g id="Layer_1_1_">
		<g id="circle-background">
			
				<image style="overflow:visible;opacity:0.35;enable-background:new    ;" width="384" height="382" xlink:href="B0135E5C812F6AC0.png"  transform="matrix(0.4448 0 0 0.4448 0 0)">
			</image>
			<circle class="st0" cx="85.3" cy="84.9" r="56"/>
			<circle class="st1" cx="85.3" cy="84.9" r="56"/>
		</g>
		<g id="group">
			<polygon id="outline" class="st2" points="43.2,110.6 44.5,105.9 47.2,102.6 50.7,99.6 55,97.3 58.5,96 60.4,94.5 60.4,90.1 
				57.5,90.1 54.6,88.5 52.4,86.5 51.8,81.8 51.8,75.9 53.7,68.5 57.8,63.8 61.7,62.1 69,62.1 73.4,63.8 76.8,66.7 79,70.5 80.9,76 
				80.9,84.6 79.6,88.1 77.7,89.5 75.4,90.7 72.6,90.9 72.6,93.8 74.4,95.4 77.3,97 82.2,99.3 86.7,97.1 89.9,96 92.7,94.8 95,93 
				95,88.7 92.7,85 91.8,82.7 90.1,81.6 88.9,78.3 88.9,75.3 89.9,74.5 89.5,66.4 91.7,62.9 95.6,60.3 100.1,59.3 104.9,59.3 
				109.9,61.8 112.1,64.9 112.7,67.9 112.7,75.5 113.5,75.9 112.8,79.9 112.2,81.3 110.4,83.3 108.9,87.3 107.9,88.7 108.4,92.3 
				110.2,94.8 114,96.2 118.1,97.5 121.5,100.1 124.1,102.3 125.7,105.9 127.4,110.6 			"/>
			<polygon id="first_person-hair" class="st3" points="59,73.9 57.9,75.2 57.9,77.3 57.9,81.6 59,86.6 60.4,90.1 63.2,91.7 
				65,92.7 68.2,92.7 70,92 72.6,90.9 73.8,87.6 74.6,78.6 70.6,78.6 66.2,75.8 69,79.1 66.9,78.9 62.7,74.6 64.3,78.1 61.8,76.9 
							"/>
			<polygon id="first_person-neck" class="st3" points="55,97.3 56.6,99.2 58.8,100.6 60.9,101.3 64.1,102.1 71,102.1 74.6,100.8 
				78.3,97.5 77.3,97 74.4,95.4 72.6,93.8 72.6,90.9 70,92 68.2,92.7 65,92.7 63.2,91.7 60.4,90.1 60.4,94.5 58.5,96 			"/>
			<polygon id="second_person-neck" class="st3" points="92.7,94.8 94.1,96.9 96,98.2 98.2,98.8 103.8,98.8 106.8,97.9 108.6,96.8 
				110.2,94.8 108.4,92.3 107.9,88.7 105.2,90.8 103.5,91.5 100.2,91.4 97.1,90.6 95,88.7 95,93 			"/>
			<polygon id="second_person-hair" class="st4" points="92.7,68 95.2,70 97.1,71.1 103,71.1 106.7,70.1 109.7,68 110.6,69.5 
				110.6,78.3 112.2,76.6 113.2,77.9 112.8,79.9 112.2,81.3 110.4,83.3 108.9,87.3 107.9,88.7 105.2,90.8 103.5,91.5 100.2,91.4 
				97.1,90.6 95,88.7 92.7,85 91.8,82.7 90.1,81.6 88.9,78.3 88.9,75.3 90.9,77.6 91.8,76.1 91.8,69.1 			"/>
		</g>
	</g>
</g>
<title>team icon</title>
<g>
	<g id="Layer_1_2_">
		<g id="circle-background_1_">
			
				<image style="overflow:visible;opacity:0.35;enable-background:new    ;" width="384" height="382" xlink:href="B0135E5C812F6AC1.png"  transform="matrix(0.4448 0 0 0.4448 0 0)">
			</image>
			<circle class="st0" cx="85.3" cy="84.9" r="56"/>
			<circle class="st1" cx="85.3" cy="84.9" r="56"/>
		</g>
		<g id="group_1_">
			<polygon id="outline_1_" class="st2" points="43.2,110.6 44.5,105.9 47.2,102.6 50.7,99.6 55,97.3 58.5,96 60.4,94.5 60.4,90.1 
				57.5,90.1 54.6,88.5 52.4,86.5 51.8,81.8 51.8,75.9 53.7,68.5 57.8,63.8 61.7,62.1 69,62.1 73.4,63.8 76.8,66.7 79,70.5 80.9,76 
				80.9,84.6 79.6,88.1 77.7,89.5 75.4,90.7 72.6,90.9 72.6,93.8 74.4,95.4 77.3,97 82.2,99.3 86.7,97.1 89.9,96 92.7,94.8 95,93 
				95,88.7 92.7,85 91.8,82.7 90.1,81.6 88.9,78.3 88.9,75.3 89.9,74.5 89.5,66.4 91.7,62.9 95.6,60.3 100.1,59.3 104.9,59.3 
				109.9,61.8 112.1,64.9 112.7,67.9 112.7,75.5 113.5,75.9 112.8,79.9 112.2,81.3 110.4,83.3 108.9,87.3 107.9,88.7 108.4,92.3 
				110.2,94.8 114,96.2 118.1,97.5 121.5,100.1 124.1,102.3 125.7,105.9 127.4,110.6 			"/>
			<polygon id="first_person-hair_1_" class="st3" points="59,73.9 57.9,75.2 57.9,77.3 57.9,81.6 59,86.6 60.4,90.1 63.2,91.7 
				65,92.7 68.2,92.7 70,92 72.6,90.9 73.8,87.6 74.6,78.6 70.6,78.6 66.2,75.8 69,79.1 66.9,78.9 62.7,74.6 64.3,78.1 61.8,76.9 
							"/>
			<polygon id="first_person-neck_1_" class="st3" points="55,97.3 56.6,99.2 58.8,100.6 60.9,101.3 64.1,102.1 71,102.1 
				74.6,100.8 78.3,97.5 77.3,97 74.4,95.4 72.6,93.8 72.6,90.9 70,92 68.2,92.7 65,92.7 63.2,91.7 60.4,90.1 60.4,94.5 58.5,96 			
				"/>
			<polygon id="second_person-neck_1_" class="st3" points="92.7,94.8 94.1,96.9 96,98.2 98.2,98.8 103.8,98.8 106.8,97.9 
				108.6,96.8 110.2,94.8 108.4,92.3 107.9,88.7 105.2,90.8 103.5,91.5 100.2,91.4 97.1,90.6 95,88.7 95,93 			"/>
			<polygon id="second_person-hair_1_" class="st4" points="92.7,68 95.2,70 97.1,71.1 103,71.1 106.7,70.1 109.7,68 110.6,69.5 
				110.6,78.3 112.2,76.6 113.2,77.9 112.8,79.9 112.2,81.3 110.4,83.3 108.9,87.3 107.9,88.7 105.2,90.8 103.5,91.5 100.2,91.4 
				97.1,90.6 95,88.7 92.7,85 91.8,82.7 90.1,81.6 88.9,78.3 88.9,75.3 90.9,77.6 91.8,76.1 91.8,69.1 			"/>
		</g>
	</g>
</g>
</svg>
